<?xml version="1.0" encoding="UTF-8"?>
<svg version="1.1" xmlns="http://www.w3.org/2000/svg" width="1254" height="1254">
<path d="M0 0 C413.82 0 827.64 0 1254 0 C1254 413.82 1254 827.64 1254 1254 C840.18 1254 426.36 1254 0 1254 C0 840.18 0 426.36 0 0 Z "  fill="none" transform="translate(0,0)"/>
<path d="M0 0 C4.93993484 3.67623058 10.13328878 8.53497505 11.13671875 14.80859375 C11.89735077 26.39264537 7.76085273 33.91092036 1.99169922 43.73583984 C0.08382652 47.04800971 -1.62422072 50.44708517 -3.3125 53.875 C-3.84875 54.94492188 -4.385 56.01484375 -4.9375 57.1171875 C-5.79818315 58.92168796 -6.61043289 60.75101574 -7.34765625 62.609375 C-8.61824856 65.75756324 -10.29569083 68.59170832 -11.99609375 71.5234375 C-13.28053825 73.93987017 -14.33552466 76.40331992 -15.39477539 78.92431641 C-17.35844123 83.36568032 -19.62012678 87.66841897 -21.8125 92 C-25.81882352 99.95939077 -29.74916926 107.94643008 -33.5625 116 C-38.01839876 125.39885292 -42.64278853 134.70627588 -47.3125 144 C-51.85676395 153.04424248 -56.36121326 162.09875795 -60.6875 171.25 C-65.79070898 182.04099609 -71.14524501 192.70142292 -76.50167847 203.36810303 C-81.62061525 213.56578764 -86.65938307 223.79239809 -91.54296875 234.10546875 C-94.99247149 241.3771057 -98.58285507 248.57204187 -102.20239258 255.76025391 C-105.36216452 262.05303423 -108.42279269 268.38662081 -111.4375 274.75 C-116.74270071 285.93773209 -122.28147219 297.00429406 -127.85986328 308.05761719 C-131.85713264 315.99415673 -135.74722884 323.97428277 -139.5625 332 C-145.9797244 345.48796141 -152.6916003 358.82411472 -159.40576172 372.16601562 C-160.99105683 375.31810992 -162.57368041 378.47153663 -164.15625 381.625 C-164.61181274 382.52782715 -165.06737549 383.4306543 -165.53674316 384.36083984 C-168.94098765 391.14510352 -172.21839933 397.98461351 -175.48046875 404.83813477 C-180.61541503 415.61358839 -185.90991187 426.30276413 -191.27323914 436.9660778 C-192.83151657 440.0648017 -194.38665334 443.16508508 -195.94104004 446.26576233 C-200.35059336 455.06076714 -204.76499055 463.85333484 -209.18261719 472.64428711 C-211.90897178 478.07018472 -214.63140411 483.49803554 -217.35145569 488.92709541 C-218.38014085 490.97828601 -219.41034039 493.0287179 -220.44212341 495.07835197 C-221.8785015 497.93183683 -223.30989285 500.7877727 -224.74023438 503.64428711 C-225.1610025 504.47706177 -225.58177063 505.30983643 -226.01528931 506.16784668 C-228.44241136 511.03016353 -230.449536 515.89586538 -232.3125 521 C-233.60729259 523.67023826 -235.01643788 526.27011533 -236.4375 528.875 C-241.53793714 538.38809705 -246.37230695 548.02807421 -251.1875 557.6875 C-251.55957581 558.43360535 -251.93165161 559.17971069 -252.31500244 559.94842529 C-254.33770293 564.00530938 -256.35946824 568.0626551 -258.37542725 572.12289429 C-259.02218782 573.41845855 -259.67408375 574.71146748 -260.33013916 576.00234985 C-260.66994812 576.67293427 -261.00975708 577.34351868 -261.35986328 578.03442383 C-261.66240021 578.62757889 -261.96493713 579.22073395 -262.27664185 579.8318634 C-263.14369479 581.64667676 -263.94726766 583.49163659 -264.73483276 585.34233093 C-266.22179051 588.78969882 -267.82263713 592.13408155 -269.5078125 595.48828125 C-269.96476753 596.40000092 -269.96476753 596.40000092 -270.43095398 597.33013916 C-271.08805264 598.64055584 -271.74607437 599.95050999 -272.40493774 601.26004028 C-273.46031376 603.35784771 -274.51306005 605.45695709 -275.56518555 607.55639648 C-278.18541754 612.78358986 -280.80988014 618.00865602 -283.43450928 623.23364258 C-285.64619815 627.63690194 -287.85603318 632.04108305 -290.06365967 636.44638062 C-291.07799636 638.4687833 -292.09482069 640.48991987 -293.11181641 642.51098633 C-296.96958735 650.19686833 -300.71931168 657.92810785 -304.41113281 665.69506836 C-310.7387677 678.98869019 -317.32341762 692.1521187 -323.91884518 705.31408429 C-325.63466028 708.73932069 -327.34810059 712.16574481 -329.06182861 715.59202576 C-332.29560961 722.05651319 -335.53142054 728.51998215 -338.76801991 734.98305887 C-342.43200752 742.29982166 -346.09370371 749.61773032 -349.75520658 756.93573678 C-356.02359635 769.46387355 -362.29354686 781.991228 -368.56568909 794.51748657 C-369.08950668 795.56367661 -369.61332428 796.60986664 -370.15301514 797.6877594 C-370.66554588 798.70848101 -371.17807663 799.72920261 -371.70613861 800.78085518 C-372.85993724 803.09306518 -374.00312627 805.40884869 -375.13669586 807.73090935 C-375.44451406 808.35722974 -375.75233225 808.98355013 -376.06947827 809.62884992 C-376.93164987 811.38394123 -377.78910292 813.14134821 -378.64625931 814.89889431 C-384.1864904 825.21003498 -392.36366326 830.35038775 -403.3125 834 C-416.80347369 835.09311479 -426.4136049 833.673226 -437.3125 825 C-442.06785358 820.83906562 -444.81153796 815.23358611 -447.375 809.5625 C-447.99097579 808.21559103 -448.60824754 806.86927425 -449.2265625 805.5234375 C-449.56075195 804.79479492 -449.89494141 804.06615234 -450.23925781 803.31542969 C-452.19983916 799.08564046 -454.22997642 794.88913425 -456.25 790.6875 C-459.52258741 783.86898878 -462.77075909 777.03971053 -465.98046875 770.19140625 C-466.29966278 769.51048416 -466.61885681 768.82956207 -466.94772339 768.12800598 C-467.60793078 766.71952324 -468.26813789 765.31104037 -468.92834473 763.90255737 C-474.85476277 751.26133635 -480.87546167 738.6714397 -487 726.125 C-493.75623339 712.27992509 -500.3224338 698.36155696 -506.76074219 684.36523438 C-508.32449082 680.97399599 -509.89866357 677.58780064 -511.4765625 674.203125 C-517.60529258 661.05450224 -523.6512201 647.87201452 -529.63519287 634.65713501 C-534.28233887 624.40037129 -539.01367548 614.18661563 -543.8125 604 C-549.2623968 592.43133278 -554.60550419 580.81855443 -559.87973022 569.16879272 C-564.76543413 558.37799903 -569.71959359 547.62207132 -574.72192383 536.88476562 C-579.65500146 526.28795567 -584.49994339 515.6520121 -589.3125 505 C-589.9725 505 -590.6325 505 -591.3125 505 C-591.56306152 505.53665283 -591.81362305 506.07330566 -592.07177734 506.6262207 C-593.27238443 509.19051053 -594.47997318 511.75146178 -595.6875 514.3125 C-596.08066406 515.15490234 -596.47382812 515.99730469 -596.87890625 516.86523438 C-599.72286655 522.88130425 -602.75798689 528.77057751 -605.87890625 534.64648438 C-611.20624043 544.72624549 -616.32800865 554.90237789 -621.4140625 565.10546875 C-622.34449763 566.96821334 -623.27511491 568.83086697 -624.2059021 570.69343567 C-626.62772365 575.54084688 -629.04714397 580.38945245 -631.46600342 585.23834229 C-633.91337901 590.14334628 -636.36302737 595.04721487 -638.8125 599.95117188 C-642.77634858 607.88756141 -646.73902163 615.82453623 -650.6993866 623.76266479 C-656.750934 635.89016409 -662.81706418 648.01038129 -668.88425827 660.13005829 C-676.42506537 675.19353706 -683.96322317 690.25834079 -691.5002594 705.32370663 C-695.84316112 714.00435363 -700.18682114 722.68461967 -704.53222656 731.36401367 C-708.34857809 738.98669614 -712.16348463 746.61009978 -715.97671604 754.23434359 C-717.98567025 758.2509604 -719.99530137 762.26723495 -722.00668335 766.28263664 C-724.25269903 770.76669671 -726.49653208 775.25184256 -728.73828125 779.73803711 C-729.08595928 780.43358416 -729.43363731 781.12913122 -729.79185104 781.84575546 C-733.98616175 790.24326687 -738.14996583 798.6518701 -742.01704407 807.2066412 C-746.77449194 817.6290535 -753.79838565 824.55535959 -764.4375 828.875 C-773.40762116 831.49848552 -783.63140432 831.27702051 -792.10546875 827.2578125 C-803.43182795 820.80279009 -808.68213685 811.93480238 -814.0625 800.3125 C-814.5783667 799.21760254 -815.0942334 798.12270508 -815.62573242 796.99462891 C-816.68345723 794.74917777 -817.73775129 792.50210731 -818.78857422 790.25341797 C-820.62722462 786.32809672 -822.49488691 782.41713381 -824.36572266 778.50708008 C-827.05432424 772.8874962 -829.73484884 767.26466863 -832.34765625 761.609375 C-832.81788208 760.59254639 -832.81788208 760.59254639 -833.29760742 759.55517578 C-834.11580502 757.78050631 -834.92922693 756.0036371 -835.7421875 754.2265625 C-837.28674433 750.9421087 -837.28674433 750.9421087 -839.2578125 747.7109375 C-840.79153185 745.07537516 -841.97176748 742.45235867 -843.0625 739.60546875 C-845.72661888 732.73053306 -848.9993798 726.1525352 -852.23046875 719.53100586 C-853.31438758 717.30862987 -854.39193511 715.0832472 -855.46875 712.85742188 C-856.16629241 711.42169311 -856.86419665 709.98614007 -857.5625 708.55078125 C-857.87928711 707.89644608 -858.19607422 707.2421109 -858.52246094 706.56794739 C-860.6231073 702.27335306 -862.92653816 698.14259596 -865.3125 694 C-865.9361563 692.53737748 -866.52441024 691.05871897 -867.0625 689.5625 C-871.09022079 679.16019749 -876.50401656 669.22302087 -881.98828125 659.52734375 C-883.2625223 657.09538516 -884.35399453 654.62547645 -885.41723633 652.09545898 C-890.60252567 639.95874274 -896.22083299 627.9676087 -902.19555664 616.20019531 C-905.73122489 609.22220397 -909.09553313 602.16361864 -912.47070312 595.10693359 C-915.21299885 589.37451355 -917.96434066 583.6468739 -920.73828125 577.9296875 C-926.46629595 566.12198454 -932.13307646 554.29511616 -937.625 542.375 C-942.55232252 531.68151614 -947.64602799 521.07938928 -952.8125 510.5 C-958.40602145 499.04331719 -963.89129909 487.55003932 -969.22753906 475.97070312 C-973.93157217 465.77815071 -978.73852894 455.63622799 -983.5625 445.5 C-985.20057946 442.05731956 -986.83860627 438.61461407 -988.4765625 435.171875 C-988.88233521 434.31907455 -989.28810791 433.46627411 -989.70617676 432.58763123 C-993.79915074 423.98257198 -997.87092493 415.36755971 -1001.9375 406.75 C-1002.45458527 405.65445297 -1002.45458527 405.65445297 -1002.9821167 404.53677368 C-1006.16437239 397.79443347 -1009.34501444 391.0513324 -1012.52539062 384.30810547 C-1017.13873693 374.52704657 -1021.75482567 364.74729404 -1026.37969971 354.97167969 C-1026.98736996 353.68723423 -1027.59491996 352.40273187 -1028.20233154 351.11816406 C-1030.005284 347.30574451 -1031.81346487 343.495848 -1033.625 339.6875 C-1034.05087402 338.78733154 -1034.47674805 337.88716309 -1034.91552734 336.9597168 C-1036.65966603 333.30399357 -1038.43462673 329.71422942 -1040.4765625 326.21484375 C-1042.05380096 323.45299853 -1043.27145579 320.84644804 -1044.375 317.875 C-1045.39267355 315.23776037 -1046.35551808 312.9283032 -1047.8125 310.5 C-1049.22939721 308.13850464 -1050.14742955 305.94162529 -1051.125 303.375 C-1052.59974801 299.56664691 -1054.31093477 296.05945858 -1056.3125 292.5 C-1058.20146197 289.13558017 -1059.8357418 285.86266351 -1061.1875 282.25 C-1063.14316109 277.08968418 -1065.74182169 272.37211793 -1068.38354492 267.54150391 C-1070.72764705 263.21350836 -1072.6587219 258.87087899 -1074.38671875 254.2578125 C-1075.36241077 251.87827668 -1076.52830426 249.72697388 -1077.8125 247.5 C-1079.54209334 244.49679701 -1080.95164139 241.55002703 -1082.1875 238.3125 C-1084.34361728 232.66932885 -1087.0715727 227.37362905 -1089.82421875 222.00390625 C-1092.99959671 215.59481006 -1093.47149584 208.65164545 -1091.734375 201.6796875 C-1089.23290903 195.88083456 -1084.547085 192.3258413 -1079.3125 189 C-1076.25917274 187.98222425 -1074.16950073 187.86456946 -1070.97224426 187.84609985 C-1069.86374619 187.83749939 -1068.75524811 187.82889893 -1067.61315918 187.82003784 C-1066.39608276 187.81577789 -1065.17900635 187.81151794 -1063.92504883 187.80712891 C-1062.00247505 187.79486267 -1062.00247505 187.79486267 -1060.0410614 187.78234863 C-1055.78390604 187.75613511 -1051.52674098 187.74080801 -1047.26953125 187.7265625 C-1045.79918602 187.72119996 -1044.32884084 187.71582245 -1042.85849571 187.71043015 C-1036.73260887 187.68879024 -1030.60672462 187.67006207 -1024.48080921 187.65880775 C-1015.73412267 187.64262921 -1006.98788468 187.60961418 -998.24136716 187.55240691 C-992.07635202 187.51347893 -985.91145558 187.4941475 -979.7463209 187.48888719 C-976.07358923 187.48526083 -972.40133594 187.47353663 -968.72873878 187.44078445 C-944.46183156 187.23505491 -923.95605577 189.31073648 -905.53125 206.7890625 C-904.7990625 207.51867187 -904.066875 208.24828125 -903.3125 209 C-902.53229492 209.75837158 -901.75208984 210.51674316 -900.94824219 211.2980957 C-892.66442835 219.78984892 -887.34253591 229.16766601 -882.5625 239.9375 C-882.02496094 241.10990234 -881.48742187 242.28230469 -880.93359375 243.49023438 C-877.82946844 250.32912846 -875.0011769 257.22900664 -872.39404297 264.2722168 C-871.00961297 267.763918 -869.24327181 270.78204698 -867.3125 274 C-866.57236946 275.69800667 -865.83414042 277.39694146 -865.11572266 279.10424805 C-863.81832484 282.16634349 -862.43661054 285.19055192 -861.0625 288.21875 C-860.76311523 288.88032104 -860.46373047 289.54189209 -860.15527344 290.22351074 C-859.20833985 292.31597231 -858.26053416 294.40803687 -857.3125 296.5 C-856.06170031 299.26005545 -854.81182654 302.02052747 -853.5625 304.78125 C-853.28116211 305.40124878 -852.99982422 306.02124756 -852.70996094 306.66003418 C-850.85843506 310.75176293 -849.07873118 314.87088258 -847.3125 319 C-846.58080903 320.63837578 -845.84280095 322.27394909 -845.09765625 323.90625 C-844.66598145 324.85242188 -844.23430664 325.79859375 -843.78955078 326.7734375 C-841.78883137 331.14393464 -839.78592283 335.51342571 -837.782547 339.88270569 C-831.47562201 353.63990949 -825.20670894 367.41026003 -819.09008789 381.25341797 C-816.08630713 388.03960872 -813.04778361 394.80873011 -809.98046875 401.56640625 C-809.59435928 402.41708679 -809.20824982 403.26776733 -808.81044006 404.14422607 C-808.00955116 405.90848108 -807.2086321 407.6727224 -806.40768433 409.43695068 C-798.54133692 426.76640601 -790.80462565 444.14812949 -783.18701172 461.58837891 C-782.48149178 463.20347082 -781.77592698 464.81854314 -781.0703125 466.43359375 C-780.73961761 467.19061584 -780.40892273 467.94763794 -780.06820679 468.7276001 C-777.53762361 474.51016133 -774.95421131 480.26724702 -772.3125 486 C-765.95431247 473.35501432 -759.7150271 460.65335613 -753.5 447.9375 C-752.48447398 445.86083124 -751.46893008 443.78417122 -750.45336914 441.70751953 C-738.09410381 416.43015043 -725.74050888 391.15001344 -713.52612305 365.80224609 C-710.36951984 359.25341046 -707.20271892 352.70972589 -704.0234375 346.171875 C-703.65635681 345.41681671 -703.28927612 344.66175842 -702.91107178 343.88381958 C-701.06572768 340.08873982 -699.21869239 336.29449578 -697.36914062 332.50146484 C-694.28303509 326.16605556 -691.2119913 319.82807476 -688.2578125 313.4296875 C-687.81405273 312.47320312 -687.37029297 311.51671875 -686.91308594 310.53125 C-686.13784761 308.85105219 -685.3716701 307.16661805 -684.61816406 305.4765625 C-680.99453192 297.63278734 -676.25443746 290.52197755 -668.6875 286.0625 C-667.33785156 285.24458984 -667.33785156 285.24458984 -665.9609375 284.41015625 C-661.47714197 282.02276659 -657.97016578 280.75083699 -652.85667419 280.73257446 C-651.77330276 280.72404449 -650.68993134 280.71551453 -649.57373047 280.70672607 C-648.39496338 280.70763245 -647.21619629 280.70853882 -646.00170898 280.70947266 C-644.75229019 280.70275543 -643.5028714 280.69603821 -642.21559143 280.68911743 C-638.79362886 280.67338343 -635.37190908 280.66676269 -631.94992709 280.66548586 C-629.80717929 280.66406156 -627.66445669 280.6597865 -625.52171516 280.65449142 C-618.03195719 280.63599176 -610.5422703 280.62781997 -603.05249023 280.62939453 C-596.09574256 280.63059313 -589.13930655 280.60954634 -582.18263763 280.5779072 C-576.19257522 280.55164553 -570.20261389 280.54103149 -564.21249443 280.54230535 C-560.64285293 280.54281247 -557.07348798 280.5372707 -553.50390434 280.51594925 C-549.51207551 280.49275745 -545.52093103 280.5021477 -541.52905273 280.51416016 C-540.36445526 280.50292114 -539.19985779 280.49168213 -537.99996948 280.48010254 C-526.37549149 280.56850484 -516.42831035 283.71419286 -507.3125 291 C-506.29736328 291.79277344 -506.29736328 291.79277344 -505.26171875 292.6015625 C-499.14284856 297.99567331 -496.0040682 304.83503398 -492.6484375 312.11328125 C-491.34139452 314.93756418 -490.01407265 317.75175964 -488.68101501 320.56384277 C-482.91082795 332.73610743 -477.18727056 344.91576743 -471.8265686 357.27479553 C-469.23363008 363.23148775 -466.4631654 369.09373785 -463.625 374.9375 C-460.80490896 380.76357868 -458.02606514 386.59261969 -455.42260742 392.51879883 C-454.05783586 395.56919983 -452.63967348 398.5925379 -451.21875 401.6171875 C-450.66316406 402.80183594 -450.10757813 403.98648437 -449.53515625 405.20703125 C-448.67529761 407.03966914 -447.81409962 408.87161721 -446.94873047 410.70166016 C-443.69883441 417.58020651 -440.64284652 424.41363974 -438.20922852 431.62646484 C-436.9588454 434.93608223 -435.24333178 437.90170999 -433.46875 440.953125 C-431.82304636 443.86646522 -430.58276808 446.90717336 -429.3125 450 C-428.32834964 452.24121637 -427.32997876 454.4758341 -426.33203125 456.7109375 C-425.69967688 458.13070631 -425.07129532 459.55226048 -424.44921875 460.9765625 C-422.80414706 464.73051463 -421.10324101 468.4481163 -419.31640625 472.13671875 C-418.95708008 472.88373047 -418.59775391 473.63074219 -418.22753906 474.40039062 C-417.50544858 475.89829666 -416.77715305 477.39323096 -416.04199219 478.88476562 C-414.09528177 482.93436952 -412.79029508 486.47164366 -412.3125 491 C-411.6525 491 -410.9925 491 -410.3125 491 C-409.9515625 489.78570313 -409.590625 488.57140625 -409.21875 487.3203125 C-407.06113564 480.86007232 -403.91417768 474.92327147 -400.8125 468.875 C-395.9457987 459.33135411 -391.2470763 449.72369938 -386.6413269 440.05140686 C-383.35838654 433.16521455 -380.0301294 426.3029565 -376.6640625 419.45703125 C-375.96404869 418.03306786 -375.96404869 418.03306786 -375.24989319 416.58033752 C-374.29864589 414.64601734 -373.34723395 412.71177811 -372.3956604 410.77761841 C-364.97074113 395.67930357 -357.62434664 380.56188241 -350.61425781 365.26611328 C-346.81002134 356.99056481 -342.78875775 348.84016192 -338.68432617 340.70996094 C-334.40924749 332.2344959 -330.30376334 323.6852801 -326.2265625 315.11328125 C-323.24817771 308.8529099 -320.2339525 302.61005107 -317.2159729 296.36871338 C-305.98841173 273.2037667 -305.98841173 273.2037667 -295.0234375 249.9140625 C-294.74091629 249.30375687 -294.45839508 248.69345123 -294.16731262 248.06465149 C-292.79989738 245.10875153 -291.4362665 242.15122953 -290.07788086 239.19116211 C-286.96376117 232.43668379 -283.72306451 225.76056466 -280.38038635 219.11743164 C-276.70045526 211.80145569 -273.12799624 204.43475434 -269.5625 197.0625 C-268.86014421 195.61212411 -268.15775097 194.16176636 -267.45532227 192.71142578 C-262.89104052 183.28309496 -258.3490772 173.84418443 -253.82348633 164.3972168 C-249.50256051 155.38175401 -245.14598338 146.38374082 -240.78665161 137.3868103 C-236.12583676 127.766378 -231.49051466 118.1342917 -226.90014648 108.47998047 C-225.71086365 105.98341435 -224.51402029 103.49069774 -223.3125 101 C-222.8882373 100.11578369 -222.46397461 99.23156738 -222.02685547 98.32055664 C-212.64672244 79.09783975 -195.85579905 64.27307314 -175.73828125 57.16796875 C-174.04251953 56.58982422 -174.04251953 56.58982422 -172.3125 56 C-162.5648711 52.51692284 -152.87097309 48.88242331 -143.16366577 45.28897095 C-127.31740491 39.42431242 -111.465948 33.57395709 -95.59942627 27.76431274 C-93.89695145 27.1409301 -92.19459501 26.51722405 -90.49237061 25.89315796 C-82.27041147 22.87956387 -74.04123853 19.89289962 -65.77734375 16.99609375 C-56.08583338 13.59670795 -46.47396893 9.98815901 -36.86035156 6.37548828 C-34.59266374 5.52403209 -32.32375373 4.67589969 -30.0546875 3.828125 C-29.37856415 3.57291077 -28.7024408 3.31769653 -28.00582886 3.05474854 C-18.73390864 -0.40433361 -9.76559448 -2.94810399 0 0 Z " fill="#2C8EFD" transform="translate(1169.3125,186)"/>
<path d="M0 0 C1.66274712 -0.0129007 1.66274712 -0.0129007 3.35908508 -0.02606201 C4.5761615 -0.03032196 5.79323792 -0.03458191 7.04719543 -0.03897095 C8.96976921 -0.05123718 8.96976921 -0.05123718 10.93118286 -0.06375122 C15.18833822 -0.08996475 19.44550329 -0.10529184 23.70271301 -0.11953735 C25.17305825 -0.12489989 26.64340343 -0.13027741 28.11374855 -0.13566971 C34.23963539 -0.15730961 40.36551964 -0.17603778 46.49143505 -0.1872921 C55.2381216 -0.20347064 63.98435959 -0.23648567 72.7308771 -0.29369295 C78.89589224 -0.33262092 85.06078868 -0.35195236 91.22592336 -0.35721266 C94.89865504 -0.36083903 98.57090833 -0.37256323 102.24350548 -0.4053154 C126.51041271 -0.61104495 147.0161885 1.46463663 165.44099426 18.94296265 C166.17318176 19.67257202 166.90536926 20.4021814 167.65974426 21.15390015 C168.83005188 22.29145752 168.83005188 22.29145752 170.02400208 23.45199585 C178.30781591 31.94374907 183.62970836 41.32156616 188.40974426 52.09140015 C188.94728333 53.26380249 189.48482239 54.43620483 190.03865051 55.64413452 C193.14277582 62.48302861 195.97106736 69.38290678 198.57820129 76.42611694 C199.96263129 79.91781815 201.72897245 82.93594712 203.65974426 86.15390015 C204.3998748 87.85190682 205.13810384 89.5508416 205.85652161 91.25814819 C207.15391942 94.32024364 208.53563372 97.34445207 209.90974426 100.37265015 C210.20912903 101.03422119 210.50851379 101.69579224 210.81697083 102.37741089 C211.76390441 104.46987245 212.7117101 106.56193701 213.65974426 108.65390015 C214.91054396 111.41395559 216.16041772 114.17442762 217.40974426 116.93515015 C217.8317511 117.86514832 217.8317511 117.86514832 218.26228333 118.81393433 C220.1138092 122.90566307 221.89351309 127.02478273 223.65974426 131.15390015 C224.39143524 132.79227593 225.12944331 134.42784924 225.87458801 136.06015015 C226.30626282 137.00632202 226.73793762 137.9524939 227.18269348 138.92733765 C229.18341289 143.29783479 231.18632144 147.66732586 233.18969727 152.03660583 C239.49662225 165.79380964 245.76553532 179.56416017 251.88215637 193.40731812 C256.05205833 202.82802901 260.305673 212.20956893 264.56455994 221.59030151 C271.63913888 237.17868671 278.6396 252.79777055 285.53474426 268.46640015 C286.09962555 269.74610687 286.09962555 269.74610687 286.67591858 271.05166626 C288.73576357 275.72136602 290.77293262 280.399542 292.77418518 285.09466553 C293.61767429 287.05607275 294.48624354 289.0047618 295.35749817 290.95394897 C298.82341458 299.09658989 298.82341458 299.09658989 298.07380676 303.9390564 C297.48341614 305.02057983 296.89302551 306.10210327 296.28474426 307.21640015 C295.59045191 308.57626966 294.89788717 309.93702197 294.20661926 311.2984314 C293.80378723 312.05462769 293.4009552 312.81082397 292.98591614 313.5899353 C290.90708885 317.60905242 289.05306041 321.72782662 287.16828918 325.84066772 C285.49459737 329.49147209 283.80096596 333.13240666 282.10115051 336.77108765 C279.91301354 341.4599198 277.73283404 346.15229304 275.56208801 350.84921265 C268.26227321 366.63704928 260.83889978 382.36386694 253.38459778 398.07919312 C253.00359924 398.88244019 252.62260071 399.68568726 252.23005676 400.51327515 C251.84905823 401.31652222 251.46805969 402.11976929 251.07551575 402.94735718 C247.11335686 411.30265548 243.16265104 419.66332195 239.22224426 428.02890015 C238.89099548 428.73198303 238.5597467 429.43506592 238.21846008 430.15945435 C233.49658339 440.18726452 228.85138497 450.24764929 224.26325989 460.3374939 C221.85089102 465.62314649 219.36099642 470.85263775 216.72224426 476.02890015 C213.55773698 482.24408352 210.86503387 488.53803131 208.65974426 495.15390015 C209.55805969 494.24511108 210.45637512 493.33632202 211.38191223 492.3999939 C214.70531984 489.04047882 218.03526636 485.68751134 221.36726379 482.33651733 C222.81047398 480.88322841 224.2518869 479.42815245 225.69148254 477.97128296 C227.75696767 475.8816318 229.82875912 473.79842106 231.90193176 471.71640015 C232.54782257 471.06018677 233.19371338 470.40397339 233.85917664 469.72787476 C234.45964813 469.1272522 235.06011963 468.52662964 235.67878723 467.9078064 C236.47154556 467.10838623 236.47154556 467.10838623 237.28031921 466.29281616 C238.65974426 465.15390015 238.65974426 465.15390015 240.65974426 465.15390015 C240.86228821 464.61362183 241.06483215 464.07334351 241.27351379 463.51669312 C243.22615901 460.18846127 245.99264665 457.89548 248.83943176 455.34921265 C255.67076463 449.10475861 262.26402386 442.64162282 268.79255676 436.08358765 C269.27798698 435.59653603 269.76341721 435.10948441 270.26355743 434.60767365 C273.7741844 431.08495461 277.28000068 427.55747122 280.78474426 424.02890015 C284.32767492 420.46218674 287.87236477 416.89725392 291.42124557 413.33646011 C292.82193317 411.92936281 294.21953032 410.51919128 295.61705017 409.10894775 C296.46919098 408.25350372 297.32133179 407.39805969 298.19929504 406.51669312 C298.94236908 405.76838226 299.68544312 405.02007141 300.45103455 404.24908447 C302.65974426 402.15390015 302.65974426 402.15390015 305.12602234 400.19372559 C307.84573114 398.00416755 310.22049411 395.65220802 312.65974426 393.15390015 C313.73947156 392.06947225 314.82052788 390.98636664 315.90261841 389.90429688 C317.14109121 388.66280443 318.37954961 387.42129763 319.61799622 386.17977905 C326.55235311 379.22905108 333.48928218 372.28089592 340.42765522 365.33417702 C344.6185719 361.13803996 348.80854786 356.94097235 352.99641418 352.74179077 C357.05889725 348.6684054 361.12385174 344.5975012 365.19049644 340.52827072 C366.73382771 338.98310071 368.27628287 337.43705509 369.8178196 335.89009476 C371.98063273 333.71997175 374.1466073 331.55305026 376.31330872 329.3868103 C376.94059372 328.75593002 377.56787872 328.12504974 378.21417236 327.47505188 C381.99487589 323.7029934 385.89752349 320.12896005 389.94862461 316.64847279 C391.97443894 314.87903097 393.83574931 313.00147887 395.66755676 311.0328064 C408.16354545 297.89360867 420.38540993 287.6491976 439.39411926 287.0328064 C452.12386113 287.11487703 462.80474481 291.61637065 471.93708801 300.32577515 C476.05348459 304.64315311 479.9746795 309.02488888 480.65974426 315.15390015 C479.66369953 319.05440674 477.86326677 322.42828013 475.97224426 325.96640015 C475.51784973 326.86809937 475.0634552 327.76979858 474.59529114 328.69882202 C472.64484084 332.53918232 470.62217082 336.34070646 468.60281563 340.14513397 C462.08229441 352.43291325 455.76394802 364.81003218 449.55818176 377.2593689 C448.62774663 379.12211349 447.69712935 380.98476711 446.76634216 382.84733582 C444.34452062 387.69474703 441.92510029 392.5433526 439.50624084 397.39224243 C437.05886525 402.29724642 434.60921689 407.20111501 432.15974426 412.10507202 C428.19589569 420.04146156 424.23322263 427.97843638 420.27285767 435.91656494 C414.22131026 448.04406424 408.15518008 460.16428144 402.08798599 472.28395844 C394.54717889 487.34743721 387.00902109 502.41224094 379.47198486 517.47760677 C375.12908314 526.15825378 370.78542312 534.83851982 366.4400177 543.51791382 C362.62366617 551.14059629 358.80875963 558.76399993 354.99552822 566.38824373 C352.98657401 570.40486054 350.97694289 574.42113509 348.96556091 578.43653679 C346.71954524 582.92059686 344.47571219 587.4057427 342.23396301 591.89193726 C341.88628498 592.58748431 341.53860695 593.28303137 341.18039322 593.9996556 C336.98608251 602.39716702 332.82227844 610.80577025 328.9552002 619.36054134 C324.19775232 629.78295365 317.17385861 636.70925973 306.53474426 641.02890015 C297.56462311 643.65238567 287.34083994 643.43092065 278.86677551 639.41171265 C267.54041631 632.95669023 262.29010741 624.08870253 256.90974426 612.46640015 C256.39387756 611.37150269 255.87801086 610.27660522 255.34651184 609.14852905 C254.28878703 606.90307792 253.23449297 604.65600745 252.18367004 602.40731812 C250.34501964 598.48199686 248.47735735 594.57103396 246.60652161 590.66098022 C243.91792003 585.04139635 241.23739542 579.41856878 238.62458801 573.76327515 C238.15436218 572.74644653 238.15436218 572.74644653 237.67463684 571.70907593 C236.85643924 569.93440646 236.04301733 568.15753725 235.23005676 566.38046265 C233.68549993 563.09600885 233.68549993 563.09600885 231.71443176 559.86483765 C230.18071242 557.2292753 229.00047678 554.60625881 227.90974426 551.7593689 C225.24562538 544.88443321 221.97286447 538.30643535 218.74177551 531.68490601 C217.65785669 529.46253002 216.58030915 527.23714734 215.50349426 525.01132202 C214.80595185 523.57559326 214.10804761 522.14004021 213.40974426 520.7046814 C213.09295715 520.05034622 212.77617004 519.39601105 212.44978333 518.72184753 C210.34913696 514.4272532 208.04570611 510.29649611 205.65974426 506.15390015 C205.03608796 504.69127763 204.44783402 503.21261912 203.90974426 501.71640015 C199.88202347 491.31409764 194.4682277 481.37692102 188.98396301 471.6812439 C187.70972196 469.24928531 186.61824973 466.77937659 185.55500793 464.24935913 C180.36971859 452.11264289 174.75141128 440.12150884 168.77668762 428.35409546 C165.24101937 421.37610412 161.87671114 414.31751878 158.50154114 407.26083374 C155.75924541 401.5284137 153.0079036 395.80077405 150.23396301 390.08358765 C144.50594831 378.27588469 138.8391678 366.44901631 133.34724426 354.52890015 C128.41992175 343.83541629 123.32621628 333.23328943 118.15974426 322.65390015 C112.56622281 311.19721733 107.08094517 299.70393946 101.7447052 288.12460327 C97.0406721 277.93205086 92.23371533 267.79012813 87.40974426 257.65390015 C85.7716648 254.21121971 84.13363799 250.76851422 82.49568176 247.32577515 C82.08990906 246.4729747 81.68413635 245.62017426 81.2660675 244.74153137 C77.17309353 236.13647213 73.10131933 227.52145986 69.03474426 218.90390015 C68.517659 217.80835312 68.517659 217.80835312 67.99012756 216.69067383 C64.80787188 209.94833362 61.62722982 203.20523255 58.44685364 196.46200562 C53.83350733 186.68094672 49.21741859 176.90119419 44.59254456 167.12557983 C43.9848743 165.84113438 43.37732431 164.55663201 42.76991272 163.27206421 C40.96696026 159.45964465 39.15877939 155.64974815 37.34724426 151.84140015 C36.92137024 150.94123169 36.49549622 150.04106323 36.05671692 149.11361694 C34.31257823 145.45789371 32.53761754 141.86812956 30.49568176 138.3687439 C28.9184433 135.60689868 27.70078847 133.00034818 26.59724426 130.02890015 C25.57957071 127.39166052 24.61672618 125.08220335 23.15974426 122.65390015 C21.74284705 120.29240479 20.82481471 118.09552544 19.84724426 115.52890015 C18.37249626 111.72054706 16.6613095 108.21335872 14.65974426 104.65390015 C12.77078229 101.28948032 11.13650246 98.01656366 9.78474426 94.40390015 C7.82908317 89.24358433 5.23042257 84.52601808 2.58869934 79.69540405 C0.24459721 75.36740851 -1.68647764 71.02477913 -3.41447449 66.41171265 C-4.39016651 64.03217683 -5.55606 61.88087403 -6.84025574 59.65390015 C-8.56984908 56.65069716 -9.97939713 53.70392718 -11.21525574 50.46640015 C-13.37137302 44.823229 -16.09932844 39.5275292 -18.85197449 34.1578064 C-22.02735244 27.74871021 -22.49925157 20.80554559 -20.76213074 13.83358765 C-18.26066476 8.03473471 -13.57484073 4.47974144 -8.34025574 1.15390015 C-5.28692847 0.13612439 -3.19725647 0.01846961 0 0 Z " fill="#0653E5" transform="translate(98.34025573730469,373.8460998535156)"/>
<path d="M0 0 C1.08337143 -0.00852997 2.16674286 -0.01705994 3.28294373 -0.02584839 C4.46171082 -0.02494202 5.64047791 -0.02403564 6.85496521 -0.02310181 C8.7290934 -0.03317764 8.7290934 -0.03317764 10.64108276 -0.04345703 C14.06304533 -0.05919104 17.48476512 -0.06581177 20.9067471 -0.0670886 C23.04949491 -0.0685129 25.1922175 -0.07278796 27.33495903 -0.07808304 C34.82471701 -0.0965827 42.3144039 -0.10475449 49.80418396 -0.10317993 C56.76093163 -0.10198133 63.71736765 -0.12302812 70.67403656 -0.15466726 C76.66409898 -0.18092893 82.65406031 -0.19154298 88.64417976 -0.19026911 C92.21382126 -0.189762 95.78318621 -0.19530377 99.35276985 -0.21662521 C103.34459868 -0.23981702 107.33574317 -0.23042676 111.32762146 -0.21841431 C113.07451767 -0.23527283 113.07451767 -0.23527283 114.85670471 -0.25247192 C126.4811827 -0.16406962 136.42836385 2.98161839 145.54417419 10.26742554 C146.22093201 10.79594116 146.89768982 11.32445679 147.59495544 11.86898804 C153.71382563 17.26309884 156.852606 24.10245951 160.20823669 31.38070679 C161.51527967 34.20498971 162.84260154 37.01918518 164.17565918 39.83126831 C169.94584625 52.00353296 175.66940363 64.18319297 181.03010559 76.54222107 C183.62304411 82.49891329 186.39350879 88.36116339 189.23167419 94.20492554 C192.05176523 100.03100422 194.83060905 105.86004523 197.43406677 111.78622437 C198.79883833 114.83662537 200.21700072 117.85996343 201.63792419 120.88461304 C202.19351013 122.06926147 202.74909607 123.25390991 203.32151794 124.47445679 C204.18137659 126.30709468 205.04257458 128.13904274 205.90794373 129.96908569 C209.15783979 136.84763205 212.21382767 143.68106527 214.64744568 150.89389038 C215.89782879 154.20350776 217.61334241 157.16913552 219.38792419 160.22055054 C221.03362783 163.13389076 222.27390611 166.1745989 223.54417419 169.26742554 C224.52832456 171.50864191 225.52669544 173.74325964 226.52464294 175.97836304 C227.15699731 177.39813184 227.78537887 178.81968602 228.40745544 180.24398804 C230.0380281 183.96485426 231.72198507 187.64839181 233.50511169 191.29867554 C233.85992615 192.0321521 234.2147406 192.76562866 234.58030701 193.52133179 C235.28789117 194.98092243 236.00298832 196.43690318 236.72679138 197.88851929 C242.5600157 209.97122501 242.5600157 209.97122501 240.74632263 215.85629272 C239.41029578 218.78716888 237.92501822 221.57906689 236.35667419 224.39242554 C235.22310237 226.53586787 234.09163931 228.68042658 232.96214294 230.82601929 C232.09661804 232.44419556 232.09661804 232.44419556 231.21360779 234.09506226 C228.72824751 238.81790101 226.44324461 243.62770006 224.16917419 248.45492554 C221.07508668 254.98209993 217.95257653 261.49365466 214.77854919 267.98226929 C213.81022206 269.96728668 212.8422913 271.95249694 211.87443542 273.93774414 C211.24271661 275.23038429 210.60899981 276.52205012 209.97319031 277.81268311 C209.08280775 279.62057141 208.20006305 281.4322152 207.31761169 283.24398804 C206.80633728 284.2863562 206.29506287 285.32872437 205.76829529 286.40267944 C204.62938279 289.06801634 204.09649614 291.4413285 203.54417419 294.26742554 C202.88417419 295.25742554 202.22417419 296.24742554 201.54417419 297.26742554 C200.88417419 297.26742554 200.22417419 297.26742554 199.54417419 297.26742554 C199.46167419 298.27418335 199.37917419 299.28094116 199.29417419 300.31820679 C198.67605561 304.64177217 196.8285666 307.79270904 194.54417419 311.45492554 C191.30459104 316.54906548 191.30459104 316.54906548 189.54417419 322.26742554 C188.88417419 322.26742554 188.22417419 322.26742554 187.54417419 322.26742554 C187.21417419 323.44305054 186.88417419 324.61867554 186.54417419 325.82992554 C184.7928384 331.1428721 182.20403104 335.89869966 179.50120544 340.77352905 C177.24936116 344.84960448 175.32688072 348.95721595 173.54417419 353.26742554 C173.01087784 354.51691891 172.47569497 355.76560865 171.93870544 357.01351929 C171.67767029 357.62260132 171.41663513 358.23168335 171.14768982 358.85922241 C170.34886169 360.7231547 169.55003357 362.587087 168.75120544 364.45101929 C168.35288513 365.38043335 167.95456482 366.30984741 167.54417419 367.26742554 C166.88417419 367.26742554 166.22417419 367.26742554 165.54417419 367.26742554 C165.39722107 368.28449585 165.39722107 368.28449585 165.24729919 369.32211304 C164.38810342 372.92118867 162.90013481 376.08192981 161.29417419 379.39242554 C160.6583937 380.72949218 160.02297963 382.06673312 159.38792419 383.40414429 C158.91806091 384.38713501 158.91806091 384.38713501 158.43870544 385.38998413 C155.17070407 392.24886257 152.10854 399.11419462 149.54417419 406.26742554 C148.88417419 406.26742554 148.22417419 406.26742554 147.54417419 406.26742554 C139.57335603 389.44506202 131.64947014 372.60543156 123.98167419 355.64242554 C119.0853239 344.81068557 114.11082928 334.02057053 109.04417419 323.26742554 C103.59405126 311.69886731 98.25116816 300.08597589 92.97694397 288.43621826 C88.09044804 277.64367526 83.13954194 266.884058 78.13035583 256.14779663 C75.58290657 250.68198376 73.05674928 245.20855567 70.58323669 239.70883179 C69.89064758 238.17005371 69.89064758 238.17005371 69.18406677 236.60018921 C68.32304195 234.68160989 67.4658705 232.7612948 66.61326599 230.83895874 C66.23597351 229.99808716 65.85868103 229.15721558 65.46995544 228.29086304 C64.98136047 227.19137329 64.98136047 227.19137329 64.4828949 226.06967163 C63.56588808 224.0888162 63.56588808 224.0888162 61.54417419 222.26742554 C61.19354919 221.11242554 60.84292419 219.95742554 60.48167419 218.76742554 C57.74764947 211.18672061 51.02748838 204.2452903 44.04026794 200.29476929 C30.97395472 194.91692832 17.467533 193.25245738 4.14573669 198.64242554 C-3.91524533 202.41937156 -10.18070478 206.93026235 -16.45582581 213.26742554 C-17.75222067 214.56347889 -19.04913879 215.85900897 -20.34645081 217.15414429 C-22.42963696 219.23516497 -24.50883672 221.31915692 -26.57252502 223.41952515 C-27.5395636 224.39997803 -27.5395636 224.39997803 -28.52613831 225.40023804 C-29.09090881 225.97661011 -29.65567932 226.55298218 -30.23756409 227.14682007 C-32.03762092 228.86763161 -33.86438769 230.46592807 -35.76124573 232.07504272 C-42.67621689 238.09408884 -49.03231328 244.72171114 -55.49879456 251.21273804 C-56.95489894 252.67071117 -58.41122698 254.12846095 -59.86776733 255.58599854 C-63.68366497 259.4056944 -67.49655141 263.2283821 -71.30879211 267.05172729 C-75.18606707 270.93924055 -79.06617796 274.82392098 -82.94606018 278.70883179 C-89.21066247 284.98219911 -95.47354893 291.25727311 -101.73414612 297.53463745 C-102.81740285 298.62073717 -103.90100867 299.70648889 -104.98502445 300.79183102 C-106.3307747 302.14196691 -107.67089217 303.49771125 -109.01042175 304.85401917 C-111.63657378 307.44580845 -114.34393777 309.92344551 -117.08155823 312.39706421 C-123.04410351 317.82513408 -128.76794995 323.46597874 -134.44410706 329.19320679 C-135.4412168 330.19474285 -136.438635 331.19597192 -137.43634033 332.19691467 C-140.54989827 335.32171036 -143.6594169 338.45050534 -146.76832581 341.57992554 C-150.39583809 345.23122295 -154.02508745 348.88076144 -157.65857506 352.52611351 C-159.09352869 353.96745881 -160.52539607 355.41181945 -161.9571228 356.85636902 C-166.16176974 361.07676846 -170.38070647 365.16942558 -174.95484924 368.98690796 C-177.25649735 370.95049682 -179.34418767 373.10277383 -181.45582581 375.26742554 C-182.53104476 376.34536242 -183.60773431 377.42183358 -184.68556213 378.49716187 C-185.55589836 379.36749809 -185.55589836 379.36749809 -186.44381714 380.25541687 C-194.44782003 388.25941976 -202.45182292 396.26342265 -210.45582581 404.26742554 C-210.78582581 403.60742554 -211.11582581 402.94742554 -211.45582581 402.26742554 C-210.60035706 400.45492554 -210.60035706 400.45492554 -209.26832581 398.26742554 C-207.38884737 395.17849422 -205.95699365 392.08936266 -204.65113831 388.72836304 C-202.25863884 382.62402487 -199.39890137 376.77855585 -196.51832581 370.89242554 C-195.34483925 368.4752184 -194.17246863 366.05752312 -193.00270081 363.63851929 C-192.70519424 363.02348038 -192.40768768 362.40844147 -192.10116577 361.77476501 C-189.08899664 355.53288262 -186.17262226 349.24764426 -183.26832581 342.95492554 C-178.06682416 331.69235545 -172.7771008 320.47384222 -167.45582581 309.26742554 C-161.10787903 295.89532434 -154.81939779 282.49871872 -148.60426331 269.06430054 C-145.4962416 262.3462675 -142.36265258 255.64035071 -139.22727966 248.93505859 C-134.50343158 238.83012441 -129.80020632 228.7159436 -125.14332581 218.57992554 C-124.68103577 217.57606812 -124.21874573 216.57221069 -123.7424469 215.53793335 C-123.32172913 214.61979858 -122.90101135 213.70166382 -122.46754456 212.75570679 C-121.91779968 211.55748291 -121.91779968 211.55748291 -121.35694885 210.33505249 C-120.36412853 208.14089117 -120.36412853 208.14089117 -119.45582581 205.26742554 C-118.34630869 202.98618747 -117.21728435 200.72048397 -116.06910706 198.45883179 C-112.77687238 191.92326563 -109.52809422 185.36779328 -106.31129456 178.79476929 C-105.85928177 177.87123657 -105.40726898 176.94770386 -104.94155884 175.9961853 C-103.50818645 173.06607205 -102.07569381 170.1355299 -100.64332581 167.20492554 C-99.62779979 165.12825677 -98.61225589 163.05159675 -97.59669495 160.97494507 C-85.23742962 135.69757596 -72.88383469 110.41743897 -60.66944885 85.06967163 C-57.51284565 78.520836 -54.34604473 71.97715143 -51.16676331 65.43930054 C-50.79968262 64.68424225 -50.43260193 63.92918396 -50.05439758 63.15124512 C-48.20905348 59.35616536 -46.36201819 55.56192131 -44.51246643 51.76889038 C-41.4263609 45.4334811 -38.3553171 39.09550029 -35.40113831 32.69711304 C-34.95737854 31.74062866 -34.51361877 30.78414429 -34.05641174 29.79867554 C-33.28117342 28.11847773 -32.51499591 26.43404359 -31.76148987 24.74398804 C-28.13785772 16.90021287 -23.39776326 9.78940309 -15.83082581 5.32992554 C-14.93106018 4.7846521 -14.03129456 4.23937866 -13.10426331 3.67758179 C-8.62046777 1.29019213 -5.11349159 0.01826253 0 0 Z " fill="#156FF7" transform="translate(516.4558258056641,466.7325744628906)"/>
<path d="M0 0 C12.312269 11.18896717 12.312269 11.18896717 13.18359375 18.984375 C12.18754902 22.88488159 10.38711626 26.25875499 8.49609375 29.796875 C7.81450195 31.14942383 7.81450195 31.14942383 7.11914062 32.52929688 C5.16869033 36.36965717 3.14602031 40.17118132 1.12666512 43.97560883 C-5.3938561 56.26338811 -11.71220249 68.64050703 -17.91796875 81.08984375 C-18.84840388 82.95258834 -19.77902116 84.81524197 -20.70980835 86.67781067 C-23.1316299 91.52522188 -25.55105022 96.37382745 -27.96990967 101.22271729 C-30.41728526 106.12772128 -32.86693362 111.03158987 -35.31640625 115.93554688 C-39.28025483 123.87193641 -43.24292788 131.80891123 -47.20329285 139.74703979 C-53.25484025 151.87453909 -59.32097043 163.99475629 -65.38816452 176.11443329 C-72.92897162 191.17791206 -80.46712942 206.24271579 -88.00416565 221.30808163 C-92.34706737 229.98872863 -96.69072739 238.66899467 -101.03613281 247.34838867 C-104.85248434 254.97107114 -108.66739088 262.59447478 -112.48062229 270.21871859 C-114.4895765 274.2353354 -116.49920762 278.25160995 -118.5105896 282.26701164 C-120.75660528 286.75107171 -123.00043833 291.23621756 -125.2421875 295.72241211 C-125.58986553 296.41795916 -125.93754356 297.11350622 -126.29575729 297.83013046 C-130.490068 306.22764187 -134.65387208 314.6362451 -138.52095032 323.1910162 C-143.27839819 333.6134285 -150.3022919 340.53973459 -160.94140625 344.859375 C-169.91152741 347.48286052 -180.13531057 347.26139551 -188.609375 343.2421875 C-199.9357342 336.78716509 -205.1860431 327.91917738 -210.56640625 316.296875 C-211.3402063 314.65452881 -211.3402063 314.65452881 -212.12963867 312.97900391 C-213.18736348 310.73355277 -214.24165754 308.48648231 -215.29248047 306.23779297 C-217.13113087 302.31247172 -218.99879316 298.40150881 -220.86962891 294.49145508 C-223.55823049 288.8718712 -226.23875509 283.24904363 -228.8515625 277.59375 C-229.16504639 276.91586426 -229.47853027 276.23797852 -229.80151367 275.53955078 C-230.61971127 273.76488131 -231.43313318 271.9880121 -232.24609375 270.2109375 C-233.79065058 266.9264837 -233.79065058 266.9264837 -235.76171875 263.6953125 C-237.2954381 261.05975016 -238.47567373 258.43673367 -239.56640625 255.58984375 C-242.23052513 248.71490806 -245.50328605 242.1369102 -248.734375 235.51538086 C-249.81829383 233.29300487 -250.89584136 231.0676222 -251.97265625 228.84179688 C-252.67019866 227.40606811 -253.3681029 225.97051507 -254.06640625 224.53515625 C-254.54158691 223.55365349 -254.54158691 223.55365349 -255.02636719 222.55232239 C-257.12707056 218.25761151 -259.42709835 214.12531563 -261.81640625 209.984375 C-262.63028172 208.2539731 -263.40768723 206.50539932 -264.12890625 204.734375 C-264.47566406 203.90421875 -264.82242187 203.0740625 -265.1796875 202.21875 C-265.81640625 199.984375 -265.81640625 199.984375 -264.81640625 196.984375 C-263.16640625 196.654375 -261.51640625 196.324375 -259.81640625 195.984375 C-259.81640625 197.304375 -259.81640625 198.624375 -259.81640625 199.984375 C-259.43247711 199.59600464 -259.04854797 199.20763428 -258.65298462 198.80749512 C-254.66854266 194.77892483 -250.67717171 190.75731784 -246.68164062 186.73974609 C-245.18992828 185.23795461 -243.70001297 183.73437597 -242.21191406 182.22900391 C-240.07692977 180.06985534 -237.93563854 177.91714347 -235.79296875 175.765625 C-235.12520416 175.08753784 -234.45743958 174.40945068 -233.7694397 173.71081543 C-233.14894745 173.09017212 -232.5284552 172.46952881 -231.88916016 171.83007812 C-231.34288971 171.27936646 -230.79661926 170.72865479 -230.23379517 170.16125488 C-228.81640625 168.984375 -228.81640625 168.984375 -226.81640625 168.984375 C-226.51259033 168.17395752 -226.51259033 168.17395752 -226.20263672 167.34716797 C-224.2499915 164.01893612 -221.48350386 161.72595486 -218.63671875 159.1796875 C-211.80538588 152.93523346 -205.21212665 146.47209767 -198.68359375 139.9140625 C-198.19816353 139.42701088 -197.71273331 138.93995926 -197.21259308 138.4381485 C-193.70196611 134.91542946 -190.19614983 131.38794607 -186.69140625 127.859375 C-183.1484756 124.29266159 -179.60378574 120.72772877 -176.05490494 117.16693497 C-174.65421734 115.75983767 -173.25662019 114.34966614 -171.85910034 112.93942261 C-171.00695953 112.08397858 -170.15481873 111.22853455 -169.27685547 110.34716797 C-168.53378143 109.59885712 -167.7907074 108.85054626 -167.02511597 108.07955933 C-164.81640625 105.984375 -164.81640625 105.984375 -162.35012817 104.02420044 C-159.63041937 101.8346424 -157.2556564 99.48268287 -154.81640625 96.984375 C-153.73667895 95.8999471 -152.65562264 94.8168415 -151.5735321 93.73477173 C-150.3350593 92.49327929 -149.0966009 91.25177248 -147.8581543 90.01025391 C-140.9237974 83.05952594 -133.98686833 76.11137077 -127.04849529 69.16465187 C-122.85757862 64.96851481 -118.66760265 60.7714472 -114.47973633 56.57226562 C-110.41725326 52.49888025 -106.35229877 48.42797606 -102.28565407 44.35874557 C-100.7423228 42.81357556 -99.19986764 41.26752995 -97.65833092 39.72056961 C-95.49551778 37.5504466 -93.32954321 35.38352511 -91.1628418 33.21728516 C-90.53555679 32.58640488 -89.90827179 31.9555246 -89.26197815 31.30552673 C-85.48127462 27.53346825 -81.57862702 23.9594349 -77.5275259 20.47894764 C-75.50171157 18.70950582 -73.64040121 16.83195372 -71.80859375 14.86328125 C-53.09818939 -4.81020827 -24.84375607 -19.60687663 0 0 Z " fill="#023CBB" transform="translate(565.81640625,670.015625)"/>
<path d="M0 0 C1.26898636 -0.00043808 2.53797272 -0.00087616 3.84541321 -0.00132751 C7.30782736 -0.00218476 10.76992679 0.01539658 14.2322681 0.03639436 C17.85706387 0.05520669 21.48186765 0.05691518 25.10670471 0.06047058 C31.96307209 0.06977772 38.81929518 0.09437332 45.67559916 0.12451905 C53.48454051 0.15810466 61.29348893 0.1745595 69.10248458 0.18960536 C85.15898356 0.22092419 101.21533759 0.27365858 117.27172852 0.34057617 C113.99683102 2.52384117 113.05214846 2.59324058 109.25727844 2.60559082 C107.70340172 2.61800056 107.70340172 2.61800056 106.11813354 2.63066101 C104.98199615 2.62967911 103.84585876 2.6286972 102.67529297 2.62768555 C100.87974724 2.6379351 100.87974724 2.6379351 99.04792786 2.64839172 C95.76252642 2.66555901 92.47722926 2.67407752 89.19179177 2.67943001 C85.74949507 2.68762439 82.30728036 2.70855413 78.86503601 2.7286377 C70.10480522 2.77762211 61.34453962 2.8098981 52.58422852 2.84057617 C43.14360235 2.87368418 33.70304011 2.90975199 24.26251191 2.9647069 C20.83838617 2.984167 17.41434623 2.99944511 13.99016762 3.00505066 C10.16506441 3.01250901 6.34018197 3.03179085 2.51513672 3.0534668 C0.82611237 3.05199394 0.82611237 3.05199394 -0.89703369 3.05049133 C-5.58435374 3.08742308 -9.83827927 3.21732589 -14.3684845 4.48352051 C-15.4772142 4.76634888 -16.58594391 5.04917725 -17.72827148 5.34057617 C-18.38827148 4.68057617 -19.04827148 4.02057617 -19.72827148 3.34057617 C-13.22459899 -0.21539788 -7.30083455 -0.06614887 0 0 Z " fill="#2783FD" transform="translate(523.728271484375,466.659423828125)"/>
<path d="M0 0 C3.41074984 1.70537492 4.05229966 5.71562585 5.375 9.125 C7.55450594 14.71842233 9.95896185 19.82284801 13 25 C13.86097351 26.79953475 14.69685209 28.61142384 15.5 30.4375 C16.99901574 33.82072747 18.56728139 37.11273623 20.3125 40.375 C21.86032597 43.69995949 22.44693986 45.42448116 22 49 C19.79691261 46.21966709 18.13978031 43.48204752 16.6171875 40.28125 C16.17600586 39.35787842 15.73482422 38.43450684 15.28027344 37.4831543 C14.8165332 36.49871338 14.35279297 35.51427246 13.875 34.5 C13.39579102 33.48784424 12.91658203 32.47568848 12.42285156 31.43286133 C10.94116446 28.29198825 9.46911476 25.14677119 8 22 C7.53561523 21.00919434 7.07123047 20.01838867 6.59277344 18.99755859 C5.30138275 16.23222704 4.0228981 13.46138481 2.75 10.6875 C2.15807861 9.41712891 2.15807861 9.41712891 1.55419922 8.12109375 C1.20115723 7.3425 0.84811523 6.56390625 0.484375 5.76171875 C0.17209961 5.08069092 -0.14017578 4.39966309 -0.46191406 3.69799805 C-1 2 -1 2 0 0 Z " fill="#0D47D4" transform="translate(341,951)"/>
<path d="M0 0 C0.99 0.33 1.98 0.66 3 1 C-0.96 8.92 -4.92 16.84 -9 25 C-9.66 25 -10.32 25 -11 25 C-8.4621689 16.11759114 -4.22230349 8.17381793 0 0 Z " fill="#0D48D1" transform="translate(475,890)"/>
<path d="M0 0 C-1.40510504 3.31460676 -3.00092347 5.0351443 -5.8125 7.25 C-9.88981901 10.67375968 -12.48297744 14.34108805 -15 19 C-15.66 18.67 -16.32 18.34 -17 18 C-14.92478093 11.35929899 -7.91385765 0 0 0 Z " fill="#1C7AFD" transform="translate(504,471)"/>
<path d="M0 0 C2.49027819 3.10727249 4.29054783 6.31296827 6.0625 9.875 C6.56910156 10.88304687 7.07570313 11.89109375 7.59765625 12.9296875 C8.95862428 15.90941139 10.02521976 18.87510641 11 22 C10.34 22.66 9.68 23.32 9 24 C7.89442408 21.64648632 6.79051018 19.2922159 5.6875 16.9375 C5.37876953 16.28072266 5.07003906 15.62394531 4.75195312 14.94726562 C3.82602761 12.968709 2.91185044 10.98507731 2 9 C1.69143066 8.34402832 1.38286133 7.68805664 1.06494141 7.01220703 C0.31586385 5.36781766 -0.34964415 3.68587391 -1 2 C-0.67 1.34 -0.34 0.68 0 0 Z " fill="#1049CF" transform="translate(320,907)"/>
<path d="M0 0 C3.75528825 3.99562669 3.5528605 7.78145395 3.56835938 13.05688477 C3.35369623 19.7626686 0.76866736 24.60497321 -3 30 C-3.61328125 28.21484375 -3.61328125 28.21484375 -4 26 C-3.03084963 24.16195619 -2.05771457 22.32583245 -1.05859375 20.50390625 C1.01276612 15.60449048 1.39183587 10.24941668 2 5 C1.34 5 0.68 5 0 5 C0 3.35 0 1.7 0 0 Z " fill="#4BACFC" transform="translate(1177,194)"/>
<path d="M0 0 C0.66 0 1.32 0 2 0 C2.36351562 0.85271484 2.36351562 0.85271484 2.734375 1.72265625 C6.44408237 11.54624668 6.44408237 11.54624668 14 18 C15.25 20.125 15.25 20.125 16 22 C10.36972695 20.63508532 7.24458014 16.52088418 4 12 C1.81875039 8.04568785 0 4.55961125 0 0 Z " fill="#267DFD" transform="translate(722,992)"/>
<path d="M0 0 C5.48890664 4.78479034 7.97729916 13.19636989 10 20 C7 19 7 19 5.17578125 15.5078125 C4.54354127 14.05166401 3.92288863 12.59044244 3.3125 11.125 C2.99216797 10.39152344 2.67183594 9.65804687 2.34179688 8.90234375 C0 3.41984275 0 3.41984275 0 0 Z " fill="#2D75F3" transform="translate(731,620)"/>
<path d="M0 0 C0.66 0.99 1.32 1.98 2 3 C1.34 3.66 0.68 4.32 0 5 C-0.144375 5.763125 -0.28875 6.52625 -0.4375 7.3125 C-1.27888948 11.33247198 -3.11756359 14.11756359 -6 17 C-6.33 16.01 -6.66 15.02 -7 14 C-6.07726069 12.28634127 -5.1434706 10.57651984 -4.125 8.91796875 C-2.44725077 6.05763933 -1.25204947 3.0675212 0 0 Z " fill="#49A6FD" transform="translate(950,279)"/>
<path d="M0 0 C3.66274066 3.11787015 4.73578169 5.58459578 5.75 10.25 C6.11351562 11.86648438 6.11351562 11.86648438 6.484375 13.515625 C6.73960937 14.74539063 6.73960937 14.74539063 7 16 C4.34828752 13.62905707 2.8509948 11.16431913 1.25 8 C0.80140625 7.13375 0.3528125 6.2675 -0.109375 5.375 C-1 3 -1 3 0 0 Z " fill="#154ED6" transform="translate(292,849)"/>
<path d="M0 0 C0.66 0.33 1.32 0.66 2 1 C1.48050781 1.50789063 0.96101562 2.01578125 0.42578125 2.5390625 C-3.6224371 6.53490094 -7.44650891 10.55813614 -11 15 C-11.66 14.34 -12.32 13.68 -13 13 C-8.71 8.71 -4.42 4.42 0 0 Z " fill="#3BA0FD" transform="translate(970,256)"/>
<path d="M0 0 C0.33 0 0.66 0 1 0 C2.10285204 5.23854718 2.56629169 10.66342068 2 16 C1.34 16.66 0.68 17.32 0 18 C-1.07427471 14.77717587 -1.1332963 12.38488847 -1.125 9 C-1.12757812 7.948125 -1.13015625 6.89625 -1.1328125 5.8125 C-1 3 -1 3 0 0 Z " fill="#2A6DF3" transform="translate(78,387)"/>
<path d="M0 0 C1.03348696 3.10046087 1.17755913 4.05610218 0 7 C-0.99 7.33 -1.98 7.66 -3 8 C-4.0625 6.1875 -4.0625 6.1875 -5 4 C-4.67 3.01 -4.34 2.02 -4 1 C-1.9375 0.3125 -1.9375 0.3125 0 0 Z " fill="#0847CC" transform="translate(305,866)"/>
<path d="M0 0 C0.66 0 1.32 0 2 0 C2.86366822 1.78710586 3.71568594 3.5798465 4.5625 5.375 C5.27599609 6.87160156 5.27599609 6.87160156 6.00390625 8.3984375 C6.33261719 9.25695312 6.66132812 10.11546875 7 11 C6.67 11.66 6.34 12.32 6 13 C3.33753193 11.66876597 3.05398348 10.3235622 1.875 7.625 C1.52179687 6.83351563 1.16859375 6.04203125 0.8046875 5.2265625 C0 3 0 3 0 0 Z " fill="#2D68E4" transform="translate(747,656)"/>
<path d="M0 0 C0.66 0.99 1.32 1.98 2 3 C1.67 3.66 1.34 4.32 1 5 C1.99 5.33 2.98 5.66 4 6 C5.1875 9.0625 5.1875 9.0625 6 12 C5.34 12.66 4.68 13.32 4 14 C-0.60244648 5.37308869 -0.60244648 5.37308869 -1 1 C-0.67 0.67 -0.34 0.34 0 0 Z " fill="#3173F1" transform="translate(98,442)"/>
<path d="M0 0 C0.66 0.33 1.32 0.66 2 1 C0.68938409 5.23429756 -0.94356259 9.07407404 -3 13 C-3.33 13 -3.66 13 -4 13 C-3.55966813 7.80408388 -3.11696661 4.33664919 0 0 Z " fill="#1248CA" transform="translate(506,828)"/>
<path d="M0 0 C1.07765625 0.00902344 2.1553125 0.01804688 3.265625 0.02734375 C4.08546875 0.03894531 4.9053125 0.05054688 5.75 0.0625 C5.75 1.0525 5.75 2.0425 5.75 3.0625 C4.739375 2.876875 3.72875 2.69125 2.6875 2.5 C-1.23514992 1.89519405 -1.23514992 1.89519405 -5.0625 2.625 C-6.6403125 2.8415625 -6.6403125 2.8415625 -8.25 3.0625 C-8.91 2.4025 -9.57 1.7425 -10.25 1.0625 C-6.78777385 -0.00473961 -3.60960734 -0.03923486 0 0 Z " fill="#41A4FC" transform="translate(1160.25,184.9375)"/>
<path d="M0 0 C0.99 0 1.98 0 3 0 C3.86375896 1.61992165 4.71575854 3.24611861 5.5625 4.875 C6.03816406 5.77992188 6.51382812 6.68484375 7.00390625 7.6171875 C7.33261719 8.40351562 7.66132813 9.18984375 8 10 C7.67 10.66 7.34 11.32 7 12 C4.39954125 9.6975881 3.15260817 7.50103323 1.8125 4.3125 C1.46832031 3.50425781 1.12414062 2.69601562 0.76953125 1.86328125 C0.51558594 1.24839844 0.26164062 0.63351562 0 0 Z " fill="#0C47D0" transform="translate(332,936)"/>
<path d="M0 0 C0 0.66 0 1.32 0 2 C-1.24176695 2.70226141 -2.49385599 3.38629109 -3.75 4.0625 C-4.79414062 4.63677734 -4.79414062 4.63677734 -5.859375 5.22265625 C-8.36140628 6.1312406 -9.5332355 5.88336837 -12 5 C-10.56705502 4.15885829 -9.12845595 3.32734313 -7.6875 2.5 C-6.88699219 2.0359375 -6.08648437 1.571875 -5.26171875 1.09375 C-3 0 -3 0 0 0 Z " fill="#1A66F3" transform="translate(96,374)"/>
<path d="M0 0 C0.66 0.99 1.32 1.98 2 3 C0.68 5.64 -0.64 8.28 -2 11 C-2.66 9.68 -3.32 8.36 -4 7 C-3.06434658 4.35435928 -1.54985485 2.37036624 0 0 Z " fill="#134CCC" transform="translate(500,840)"/>
<path d="M0 0 C3.42931954 3.7559214 4.56429083 8.23466745 6 13 C5.01 12.67 4.02 12.34 3 12 C3 10.68 3 9.36 3 8 C2.34 7.67 1.68 7.34 1 7 C1.33 6.34 1.66 5.68 2 5 C1.34 5 0.68 5 0 5 C0 3.35 0 1.7 0 0 Z " fill="#3D7EF5" transform="translate(287,429)"/>
<path d="M0 0 C0.66 0.33 1.32 0.66 2 1 C0.02 4.63 -1.96 8.26 -4 12 C-5 10 -5 10 -4.44140625 8.0546875 C-4.15136719 7.33539062 -3.86132812 6.61609375 -3.5625 5.875 C-3.27503906 5.15054688 -2.98757813 4.42609375 -2.69140625 3.6796875 C-2.46324219 3.12539063 -2.23507812 2.57109375 -2 2 C-1.34 2 -0.68 2 0 2 C0 1.34 0 0.68 0 0 Z " fill="#0E37AB" transform="translate(545,752)"/>
<path d="M0 0 C2.96052484 3.36423277 3.92289822 6.69159287 5 11 C3 11 3 11 1.375 9.4375 C-0.45512039 6.19319567 -0.21131282 3.66275561 0 0 Z " fill="#236AF3" transform="translate(299,456)"/>
<path d="M0 0 C-2.43338652 1.53508028 -3.67124507 2.03088304 -6.578125 1.7578125 C-7.90070313 1.44457031 -7.90070313 1.44457031 -9.25 1.125 C-10.14203125 0.92132813 -11.0340625 0.71765625 -11.953125 0.5078125 C-12.62859375 0.34023438 -13.3040625 0.17265625 -14 0 C-14 -0.33 -14 -0.66 -14 -1 C-9.04653013 -2.59789351 -4.86717585 -1.28306814 0 0 Z " fill="#0D61F5" transform="translate(238,377)"/>
<path d="M0 0 C2 1.75 2 1.75 4 4 C4 5.32 4 6.64 4 8 C4.66 8 5.32 8 6 8 C5.67 9.32 5.34 10.64 5 12 C4.15885829 10.56705502 3.32734313 9.12845595 2.5 7.6875 C1.80390625 6.48673828 1.80390625 6.48673828 1.09375 5.26171875 C0 3 0 3 0 0 Z " fill="#207BFD" transform="translate(701,948)"/>
<path d="M0 0 C0.66 0.33 1.32 0.66 2 1 C0.35 4.3 -1.3 7.6 -3 11 C-3.33 11 -3.66 11 -4 11 C-3.125 4.25 -3.125 4.25 -2 2 C-1.34 2 -0.68 2 0 2 C0 1.34 0 0.68 0 0 Z " fill="#144BD0" transform="translate(486,870)"/>
<path d="M0 0 C0.66 0.99 1.32 1.98 2 3 C0.02 5.97 0.02 5.97 -2 9 C-2.66 8.67 -3.32 8.34 -4 8 C-2.87548273 5.0280615 -1.77706209 2.66559313 0 0 Z " fill="#3185FD" transform="translate(491,481)"/>
<path d="M0 0 C0.99 0.33 1.98 0.66 3 1 C4.1875 4.0625 4.1875 4.0625 5 7 C4.01 7 3.02 7 2 7 C0.5393715 4.35261084 0 3.10551666 0 0 Z " fill="#2B72F3" transform="translate(89,426)"/>
<path d="M0 0 C2 1 2 1 3.125 3.25 C4.00513321 6.01613295 4.1645438 8.12048351 4 11 C1.35534962 7.8745041 0.15585285 4.91211733 -1 1 C-0.67 0.67 -0.34 0.34 0 0 Z " fill="#134FD9" transform="translate(359,989)"/>
<path d="M0 0 C0.66 0.66 1.32 1.32 2 2 C0.68 4.64 -0.64 7.28 -2 10 C-2.66 10 -3.32 10 -4 10 C-2.99806563 6.20696275 -2.18975773 3.28463659 0 0 Z " fill="#0B4BD5" transform="translate(450,941)"/>
<path d="M0 0 C0.66 0 1.32 0 2 0 C2.99 2.97 3.98 5.94 5 9 C4.34 9 3.68 9 3 9 C0 3.375 0 3.375 0 0 Z " fill="#2C7BFB" transform="translate(714,583)"/>
<path d="M0 0 C0.66 0.33 1.32 0.66 2 1 C0.68 3.64 -0.64 6.28 -2 9 C-2.66 8.34 -3.32 7.68 -4 7 C-3.34 5.35 -2.68 3.7 -2 2 C-1.34 2 -0.68 2 0 2 C0 1.34 0 0.68 0 0 Z " fill="#0C47D1" transform="translate(455,932)"/>
<path d="M0 0 C0.66 0.33 1.32 0.66 2 1 C0.25 6.75 0.25 6.75 -2 9 C-3 6 -3 6 -1.5625 2.8125 C-1.046875 1.884375 -0.53125 0.95625 0 0 Z " fill="#1048D0" transform="translate(490,860)"/>
<path d="M0 0 C0.66 0.99 1.32 1.98 2 3 C1.01 4.98 0.02 6.96 -1 9 C-1.66 9 -2.32 9 -3 9 C-2.01 6.03 -1.02 3.06 0 0 Z " fill="#3587FC" transform="translate(468,526)"/>
<path d="M0 0 C0.66 0 1.32 0 2 0 C3.06775224 1.96466413 4.06553465 3.96855359 5 6 C4.67 6.66 4.34 7.32 4 8 C1.10067643 5.60490662 0.49831724 3.68754757 0 0 Z " fill="#2F6CEF" transform="translate(325,516)"/>
<path d="M0 0 C2.14210449 1.76956458 2.96060573 2.87575652 3.8125 5.5625 C3.874375 6.366875 3.93625 7.17125 4 8 C3.34 8.66 2.68 9.32 2 10 C1.01 7.03 0.02 4.06 -1 1 C-0.67 0.67 -0.34 0.34 0 0 Z " fill="#1662F1" transform="translate(108,463)"/>
<path d="M0 0 C-3.53411321 2.12046792 -6.94393835 2.53199289 -11 3 C-7.74003139 -0.25996861 -4.40088745 -1.46696248 0 0 Z " fill="#55B0FC" transform="translate(1150,188)"/>
<path d="M0 0 C0.33 0 0.66 0 1 0 C0.25 6.75 0.25 6.75 -2 9 C-3 6 -3 6 -1.5625 2.8125 C-1.046875 1.884375 -0.53125 0.95625 0 0 Z " fill="#3084FC" transform="translate(456,551)"/>
<path d="M0 0 C0 0.66 0 1.32 0 2 C-3.83887763 3.48320272 -6.06204091 4.22419163 -10 3 C-8.70990357 2.49596232 -7.41786211 1.99690074 -6.125 1.5 C-5.04605469 1.08234375 -5.04605469 1.08234375 -3.9453125 0.65625 C-2 0 -2 0 0 0 Z " fill="#55B1FD" transform="translate(1138,191)"/>
</svg>
